<svg width="1109" height="53" viewBox="0 0 1109 53" fill="none" xmlns="http://www.w3.org/2000/svg">
<path d="M50 9.96202C47.6897 6.66251 43.0961 5.79297 39.796 8.10333L22.8275 19.9847L16.6572 15.6638C18.9547 11.6972 17.874 6.56426 14.0488 3.88614C10.0094 1.0586 4.44386 2.03985 1.61515 6.07852C-1.21229 10.1174 -0.231818 15.6841 3.80773 18.5128C6.57961 20.4536 10.0711 20.5991 12.9024 19.1946L20.4598 24.4861L12.903 29.7771C10.0718 28.3732 6.58049 28.5188 3.80842 30.4589C-0.230939 33.2876 -1.21151 38.8537 1.61584 42.8925C4.44455 46.9318 10.0107 47.9131 14.0494 45.0856C17.8741 42.4074 18.9546 37.2745 16.6578 33.3079L22.828 28.987L39.7959 40.8677C43.096 43.1787 47.6896 42.3086 49.9999 39.009L29.2568 24.486L50 9.96202ZM8.94797 15.8472C6.39201 15.8472 4.31984 13.775 4.31984 11.219C4.31984 8.66309 6.39211 6.59092 8.94797 6.59092C11.5045 6.59092 13.5761 8.66309 13.5761 11.219C13.5761 13.775 11.5045 15.8472 8.94797 15.8472ZM8.94797 42.3817C6.39201 42.3817 4.31984 40.3096 4.31984 37.7536C4.31984 35.1977 6.39201 33.1255 8.94797 33.1255C11.5045 33.1255 13.5761 35.1977 13.5761 37.7536C13.5761 40.3095 11.5045 42.3817 8.94797 42.3817Z" fill="#184968"/>
<path d="M903 9.96202C900.69 6.66251 896.096 5.79297 892.796 8.10333L875.827 19.9847L869.657 15.6638C871.955 11.6972 870.874 6.56426 867.049 3.88614C863.009 1.0586 857.444 2.03985 854.615 6.07852C851.788 10.1174 852.768 15.6841 856.808 18.5128C859.58 20.4536 863.071 20.5991 865.902 19.1946L873.46 24.4861L865.903 29.7771C863.072 28.3732 859.58 28.5188 856.808 30.4589C852.769 33.2876 851.788 38.8537 854.616 42.8925C857.445 46.9318 863.011 47.9131 867.049 45.0856C870.874 42.4074 871.955 37.2745 869.658 33.3079L875.828 28.987L892.796 40.8677C896.096 43.1787 900.69 42.3086 903 39.009L882.257 24.486L903 9.96202ZM861.948 15.8472C859.392 15.8472 857.32 13.775 857.32 11.219C857.32 8.66309 859.392 6.59092 861.948 6.59092C864.505 6.59092 866.576 8.66309 866.576 11.219C866.576 13.775 864.505 15.8472 861.948 15.8472ZM861.948 42.3817C859.392 42.3817 857.32 40.3096 857.32 37.7536C857.32 35.1977 859.392 33.1255 861.948 33.1255C864.505 33.1255 866.576 35.1977 866.576 37.7536C866.576 40.3095 864.505 42.3817 861.948 42.3817Z" fill="#184968"/>
<path d="M465.445 9.96202C463.135 6.66251 458.541 5.79297 455.241 8.10333L438.273 19.9847L432.103 15.6638C434.4 11.6972 433.319 6.56426 429.494 3.88614C425.455 1.0586 419.889 2.03985 417.06 6.07852C414.233 10.1174 415.213 15.6841 419.253 18.5128C422.025 20.4536 425.516 20.5991 428.348 19.1946L435.905 24.4861L428.348 29.7771C425.517 28.3732 422.026 28.5188 419.254 30.4589C415.214 33.2876 414.234 38.8537 417.061 42.8925C419.89 46.9318 425.456 47.9131 429.495 45.0856C433.319 42.4074 434.4 37.2745 432.103 33.3079L438.273 28.987L455.241 40.8677C458.541 43.1787 463.135 42.3086 465.445 39.009L444.702 24.486L465.445 9.96202ZM424.393 15.8472C421.837 15.8472 419.765 13.775 419.765 11.219C419.765 8.66309 421.837 6.59092 424.393 6.59092C426.95 6.59092 429.021 8.66309 429.021 11.219C429.021 13.775 426.95 15.8472 424.393 15.8472ZM424.393 42.3817C421.837 42.3817 419.765 40.3096 419.765 37.7536C419.765 35.1977 421.837 33.1255 424.393 33.1255C426.95 33.1255 429.021 35.1977 429.021 37.7536C429.021 40.3095 426.95 42.3817 424.393 42.3817Z" fill="#184968"/>
<path d="M669.502 1.23203C668.72 0.450195 667.68 0.0127932 666.574 0.00029318C666.558 9.78678e-05 666.542 0 666.526 0C665.438 0 664.407 0.412988 663.618 1.1665L640.156 23.6008C642.668 24.2409 644.813 25.8524 646.215 28.2098C646.643 28.9281 646.983 29.6886 647.236 30.4733L669.569 7.1167C670.321 6.32988 670.735 5.29736 670.735 4.20937C670.735 3.08564 670.298 2.02871 669.502 1.23203Z" fill="#184968"/>
<path d="M637.979 26.2264C637.861 26.2214 637.743 26.219 637.625 26.219C635.645 26.219 633.682 26.9075 632.08 28.0599C630.149 29.4491 629.379 31.4443 627.961 33.2621C626.184 35.5413 623.449 36.6557 620.734 37.4158C622.315 41.5936 628.188 43.3041 632.038 43.3962C632.177 43.3996 632.316 43.4012 632.456 43.4012C636.816 43.4012 641.951 41.7807 644.053 37.4909C646.36 32.7815 643.516 26.4582 637.979 26.2264Z" fill="#184968"/>
<path d="M232.76 21.9562C232.002 21.9562 231.289 22.2516 230.752 22.7882L221.806 31.7342C221.27 32.2708 220.974 32.9838 220.974 33.7424C220.974 34.5007 221.27 35.2139 221.806 35.75C222.342 36.2866 223.056 36.582 223.814 36.582C224.572 36.582 225.286 36.2866 225.822 35.7503L234.768 26.804C235.876 25.6969 235.875 23.8953 234.768 22.788C234.232 22.2516 233.519 21.9562 232.76 21.9562ZM225.509 33.39L224.799 34.1002C224.614 34.2856 224.371 34.3784 224.128 34.3784C223.885 34.3784 223.641 34.2856 223.456 34.1002C223.085 33.7293 223.085 33.1279 223.456 32.7573L224.166 32.0471C224.537 31.676 225.139 31.676 225.509 32.0471C225.88 32.418 225.88 33.0194 225.509 33.39ZM229.263 29.6363L228.553 30.3464C228.368 30.5319 228.124 30.6247 227.881 30.6247C227.639 30.6247 227.395 30.5319 227.21 30.3464C226.839 29.9756 226.839 29.3742 227.21 29.0036L227.92 28.2934C228.291 27.9223 228.893 27.9223 229.263 28.2934C229.634 28.664 229.634 29.2654 229.263 29.6363ZM233.118 25.781L232.408 26.4911C232.223 26.6765 231.98 26.7694 231.737 26.7694C231.494 26.7694 231.251 26.6765 231.065 26.4911C230.694 26.1202 230.694 25.5188 231.065 25.1482L231.775 24.4381C232.146 24.067 232.748 24.067 233.118 24.4381C233.489 24.8087 233.489 25.4101 233.118 25.781ZM255.007 15.9413C254.636 15.5702 254.034 15.5702 253.664 15.9413L252.459 17.1467L251.123 15.8112L252.329 14.6055C252.7 14.2346 252.7 13.6332 252.329 13.2626C251.958 12.8915 251.356 12.8915 250.986 13.2626L249.78 14.4683L248.445 13.1327L249.65 11.9273C250.022 11.5565 250.022 10.9551 249.65 10.5844C249.28 10.2133 248.678 10.2133 248.308 10.5844L247.102 11.7899L245.767 10.4543L246.972 9.24891C247.343 8.87805 247.343 8.27665 246.972 7.90603C246.601 7.53493 245.999 7.53493 245.629 7.90603L244.424 9.11144L243.088 7.77592L244.294 6.5705C244.665 6.19964 244.665 5.59824 244.294 5.22761C243.923 4.85651 243.321 4.85651 242.951 5.22761L241.745 6.43303L240.41 5.0975L241.615 3.89209C241.986 3.52122 241.986 2.91982 241.615 2.5492C241.245 2.1781 240.643 2.1781 240.272 2.5492L238.395 4.42606C238.381 4.44054 238.371 4.45716 238.358 4.47236C238.346 4.48613 238.331 4.49705 238.32 4.51153L226.586 19.4704C225.25 21.173 223.798 22.811 222.27 24.3391L207.553 39.0565C204.535 42.0746 204.535 46.9856 207.553 50.0035C209.015 51.4656 210.959 52.2709 213.027 52.2709C215.094 52.2709 217.038 51.4656 218.5 50.0035L233.217 35.2866C234.747 33.7573 236.385 32.305 238.086 30.9709L253.045 19.237C253.059 19.2256 253.07 19.2111 253.084 19.199C253.099 19.1857 253.116 19.1755 253.13 19.1613L255.007 17.2844C255.378 16.9135 255.378 16.3121 255.007 15.9413ZM236.111 28.1469L227.165 37.0932C226.27 37.9885 225.08 38.4814 223.814 38.4814C222.548 38.4814 221.358 37.9885 220.463 37.0932C219.568 36.1981 219.075 35.0081 219.075 33.7424C219.075 32.4764 219.568 31.2862 220.463 30.3911L229.409 21.4451C230.305 20.5497 231.494 20.0568 232.76 20.0568C234.026 20.0568 235.216 20.5497 236.111 21.4448C237.959 23.293 237.959 26.2995 236.111 28.1469Z" fill="#184968"/>
<path d="M1085.76 21.9562C1085 21.9562 1084.29 22.2516 1083.75 22.7882L1074.81 31.7342C1074.27 32.2708 1073.97 32.9838 1073.97 33.7424C1073.97 34.5007 1074.27 35.2139 1074.81 35.75C1075.34 36.2866 1076.06 36.582 1076.81 36.582C1077.57 36.582 1078.29 36.2866 1078.82 35.7503L1087.77 26.804C1088.88 25.6969 1088.88 23.8953 1087.77 22.788C1087.23 22.2516 1086.52 21.9562 1085.76 21.9562ZM1078.51 33.39L1077.8 34.1002C1077.61 34.2856 1077.37 34.3784 1077.13 34.3784C1076.88 34.3784 1076.64 34.2856 1076.46 34.1002C1076.09 33.7293 1076.09 33.1279 1076.46 32.7573L1077.17 32.0471C1077.54 31.676 1078.14 31.676 1078.51 32.0471C1078.88 32.418 1078.88 33.0194 1078.51 33.39ZM1082.26 29.6363L1081.55 30.3464C1081.37 30.5319 1081.12 30.6247 1080.88 30.6247C1080.64 30.6247 1080.4 30.5319 1080.21 30.3464C1079.84 29.9756 1079.84 29.3742 1080.21 29.0036L1080.92 28.2934C1081.29 27.9223 1081.89 27.9223 1082.26 28.2934C1082.63 28.664 1082.63 29.2654 1082.26 29.6363ZM1086.12 25.781L1085.41 26.4911C1085.22 26.6765 1084.98 26.7694 1084.74 26.7694C1084.49 26.7694 1084.25 26.6765 1084.07 26.4911C1083.69 26.1202 1083.69 25.5188 1084.07 25.1482L1084.78 24.4381C1085.15 24.067 1085.75 24.067 1086.12 24.4381C1086.49 24.8087 1086.49 25.4101 1086.12 25.781ZM1108.01 15.9413C1107.64 15.5702 1107.03 15.5702 1106.66 15.9413L1105.46 17.1467L1104.12 15.8112L1105.33 14.6055C1105.7 14.2346 1105.7 13.6332 1105.33 13.2626C1104.96 12.8915 1104.36 12.8915 1103.99 13.2626L1102.78 14.4683L1101.44 13.1327L1102.65 11.9273C1103.02 11.5565 1103.02 10.9551 1102.65 10.5844C1102.28 10.2133 1101.68 10.2133 1101.31 10.5844L1100.1 11.7899L1098.77 10.4543L1099.97 9.24891C1100.34 8.87805 1100.34 8.27665 1099.97 7.90603C1099.6 7.53493 1099 7.53493 1098.63 7.90603L1097.42 9.11144L1096.09 7.77592L1097.29 6.5705C1097.66 6.19964 1097.66 5.59824 1097.29 5.22761C1096.92 4.85651 1096.32 4.85651 1095.95 5.22761L1094.75 6.43303L1093.41 5.0975L1094.62 3.89209C1094.99 3.52122 1094.99 2.91982 1094.62 2.5492C1094.24 2.1781 1093.64 2.1781 1093.27 2.5492L1091.4 4.42606C1091.38 4.44054 1091.37 4.45716 1091.36 4.47236C1091.35 4.48613 1091.33 4.49705 1091.32 4.51153L1079.59 19.4704C1078.25 21.173 1076.8 22.811 1075.27 24.3391L1060.55 39.0565C1057.53 42.0746 1057.53 46.9856 1060.55 50.0035C1062.01 51.4656 1063.96 52.2709 1066.03 52.2709C1068.09 52.2709 1070.04 51.4656 1071.5 50.0035L1086.22 35.2866C1087.75 33.7573 1089.38 32.305 1091.09 30.9709L1106.04 19.237C1106.06 19.2256 1106.07 19.2111 1106.08 19.199C1106.1 19.1857 1106.12 19.1755 1106.13 19.1613L1108.01 17.2844C1108.38 16.9135 1108.38 16.3121 1108.01 15.9413ZM1089.11 28.1469L1080.17 37.0932C1079.27 37.9885 1078.08 38.4814 1076.81 38.4814C1075.55 38.4814 1074.36 37.9885 1073.46 37.0932C1072.57 36.1981 1072.08 35.0081 1072.08 33.7424C1072.08 32.4764 1072.57 31.2862 1073.46 30.3911L1082.41 21.4451C1083.3 20.5497 1084.49 20.0568 1085.76 20.0568C1087.03 20.0568 1088.22 20.5497 1089.11 21.4448C1090.96 23.293 1090.96 26.2995 1089.11 28.1469Z" fill="#184968"/>
</svg>
